<?xml version="1.0" encoding="UTF-8" standalone="no"?> <svg xmlns="http://www.w3.org/2000/svg" width="512" height="512" viewBox="0 0 512 512">    <g>    <g>      <circle cx="208" cy="200" r="16" fill="#57a4ff"/>      <circle cx="304" cy="200" r="16" fill="#57a4ff"/>      <path d="M392,152V328H312V311.66A103.938,103.938,0,0,0,360,224V158.55c-23.63-4.34-42.96-18.12-55.93-37.29,0,0-64.07,38.74-152.07,38.74v64a104.019,104.019,0,0,0,48,87.64V328H120V152a136,136,0,1,1,272,0Z" fill="#57a4ff"/>      <g>        <circle cx="208" cy="200" r="16" fill="#57a4ff"/>        <circle cx="304" cy="200" r="16" fill="#57a4ff"/>        <rect x="136" y="432" width="64" height="40" fill="#57a4ff"/>        <polygon points="200.53 344.23 200 344 200 343 200.53 344.23" fill="#57a4ff"/>      </g>      <polygon points="200.53 344.23 200 344 200 343 200.53 344.23" fill="#57a4ff"/>      <polygon points="312 344 283.47 409.21 256 368 312 344" fill="#57a4ff"/>      <polygon points="256 368 228.66 409.01 200.53 344.23 256 368" fill="#57a4ff"/>      <line x1="231.69" y1="416" x2="228.66" y2="409.01" fill="none"/>      <line x1="283.47" y1="409.21" x2="280.5" y2="416" fill="none"/>      <rect x="136" y="432" width="64" height="40" fill="#57a4ff"/>      <circle cx="208" cy="200" r="16" fill="#57a4ff"/>      <circle cx="304" cy="200" r="16" fill="#57a4ff"/>    </g>    <g>      <path d="M485.24,422.07a7.683,7.683,0,0,0-.3-1.9,87.824,87.824,0,0,0-66.48-61.94L320,337.51V336h72a8,8,0,0,0,8-8V152C400,72.6,335.4,8,256,8S112,72.6,112,152V328a8,8,0,0,0,8,8h72v.57L93.54,358.23a87.824,87.824,0,0,0-66.48,61.94,7.683,7.683,0,0,0-.3,1.9L24.01,495.7A8,8,0,0,0,32,504H480a8,8,0,0,0,7.99-8.3ZM256,320a95.345,95.345,0,0,1-51.42-14.89c-.11-.08-.23-.16-.35-.23A96.3,96.3,0,0,1,160,224V167.9c70.26-1.8,123.83-26.72,141.78-36.21A93.967,93.967,0,0,0,352,164.97V224A96.115,96.115,0,0,1,256,320Zm-17.14,92.12L256,383.55l17.14,28.57c.06.1.14.19.2.29l-17.31,39.57-17.25-39.74A.834.834,0,0,1,238.86,412.12Zm-7.91-17.92-15.06-34.69,28.53,12.23Zm36.63-22.46,28.99-12.42L281.2,394.45ZM256,359.3l-48-20.57V325.26a112.255,112.255,0,0,0,96-.08v13.55ZM128,320V152a128,128,0,0,1,256,0V320H320v-4.14A111.957,111.957,0,0,0,368,224V158.55a8.007,8.007,0,0,0-6.55-7.87c-20.48-3.76-38.51-15.8-50.75-33.9a8.012,8.012,0,0,0-10.77-2.37C299.31,114.79,236.79,152,152,152a8,8,0,0,0-8,8v64a111.293,111.293,0,0,0,32.8,79.2A113.033,113.033,0,0,0,192,315.94V320ZM416,488V456a8,8,0,0,0-16,0v32H112V456a8,8,0,0,0-16,0v32H40.3l2.41-64.34a71.9,71.9,0,0,1,54.2-49.79l98.38-21.64,53.37,122.96a8.013,8.013,0,0,0,7.33,4.81H256a8,8,0,0,0,7.33-4.79l53.39-122.04,98.44,20.72a71.856,71.856,0,0,1,54.13,49.77L471.7,488Z" fill="#004fac"/>      <path d="M200,424H176v-8a8,8,0,0,0-16,0v8H136a8,8,0,0,0-8,8v40a8,8,0,0,0,8,8h64a8,8,0,0,0,8-8V432A8,8,0,0,0,200,424Zm-8,40H144V440h16v8a8,8,0,0,0,16,0v-8h16Z" fill="#004fac"/>      <path d="M290.53,248.411a8,8,0,0,0-10.119,5.059C274.4,271.51,256.691,271.989,256,272c-17.728,0-24.119-17.693-24.422-18.564a8,8,0,0,0-15.167,5.094c.4,1.2,10.161,29.47,39.589,29.47,10.3,0,31.819-6.159,39.589-29.47A8,8,0,0,0,290.53,248.411Z" fill="#004fac"/>      <circle cx="208" cy="200" r="16" fill="#004fac"/>      <circle cx="304" cy="200" r="16" fill="#004fac"/>    </g>  </g></svg>