<?xml version="1.0" encoding="iso-8859-1"?>
<!-- Generator: Adobe Illustrator 19.0.0, SVG Export Plug-In . SVG Version: 6.00 Build 0)  -->
<svg version="1.1" id="Layer_1" xmlns="http://www.w3.org/2000/svg" xmlns:xlink="http://www.w3.org/1999/xlink" x="0px" y="0px"
	 viewBox="0 0 512 512" style="enable-background:new 0 0 512 512;" xml:space="preserve">
<rect x="37.812" y="47.288" style="fill:#2196F3;" width="436.376" height="96.343"/>
<rect x="37.812" y="143.63" style="fill:#ECF0F1;" width="436.376" height="357.035"/>
<rect x="37.812" y="449.66" style="fill:#9E9E9E;" width="436.376" height="51.005"/>
<polygon style="fill:#E0E0E0;" points="384.26,359.733 474.188,359.733 384.26,449.661 "/>
<g>
	<path style="fill:#231F20;" d="M474.188,35.954h-94.805v-24.62C379.383,5.076,374.309,0,368.049,0s-11.334,5.076-11.334,11.334
		v24.62H155.286v-24.62C155.286,5.076,150.211,0,143.951,0s-11.334,5.076-11.334,11.334v24.62H37.812
		c-6.26,0-11.334,5.076-11.334,11.334v453.377c0,6.259,5.074,11.334,11.334,11.334h436.376c6.26,0,11.334-5.076,11.334-11.334
		V47.288C485.522,41.028,480.448,35.954,474.188,35.954z M49.147,438.326v-24.997h81.223c6.26,0,11.334-5.076,11.334-11.334
		s-5.074-11.334-11.334-11.334H49.147V154.965h413.707v193.433H384.26c-6.26,0-11.334,5.076-11.334,11.334v78.593L49.147,438.326
		L49.147,438.326z M446.824,371.068l-51.229,51.229v-51.229H446.824z M462.853,387.097v51.228h-51.229L462.853,387.097z
		 M49.147,58.623h83.47v21.852c0,6.259,5.074,11.334,11.334,11.334s11.334-5.076,11.334-11.334V58.623h201.429v21.852
		c0,6.259,5.074,11.334,11.334,11.334s11.334-5.076,11.334-11.334V58.623h83.47v73.674H49.147L49.147,58.623L49.147,58.623z
		 M462.853,489.331H49.147v-28.336h413.707V489.331z"/>
	<path style="fill:#231F20;" d="M206.412,188.718h-43.354c-6.26,0-11.334,5.076-11.334,11.334s5.074,11.334,11.334,11.334h43.354
		c10.468,0,18.985,8.517,18.985,18.985v13.035c0,10.468-8.517,18.985-18.985,18.985h-43.354c-6.26,0-11.334,5.076-11.334,11.334
		c0,6.259,5.074,11.334,11.334,11.334h43.354c10.468,0,18.985,8.517,18.985,18.985v13.035c0,10.468-8.517,18.985-18.985,18.985
		h-43.354c-6.26,0-11.334,5.076-11.334,11.334s5.074,11.334,11.334,11.334h43.354c22.968,0,41.654-18.686,41.654-41.654v-13.035
		c0-11.942-5.059-22.718-13.137-30.32c8.078-7.602,13.137-18.378,13.137-30.32v-13.035
		C248.066,207.404,229.381,188.718,206.412,188.718z"/>
	<path style="fill:#231F20;" d="M346.529,189.601c-4.208-1.766-9.066-0.835-12.325,2.361l-60.072,58.939
		c-4.468,4.383-4.536,11.56-0.153,16.028c4.385,4.469,11.561,4.538,16.029,0.153l40.801-40.03v46.675v73.674
		c0,6.259,5.074,11.334,11.334,11.334c6.26,0,11.334-5.076,11.334-11.334v-73.674v-73.674
		C353.476,195.488,350.738,191.369,346.529,189.601z"/>
	<path style="fill:#231F20;" d="M185.908,390.66h-10.201c-6.26,0-11.334,5.076-11.334,11.334s5.074,11.334,11.334,11.334h10.201
		c6.26,0,11.334-5.076,11.334-11.334S192.168,390.66,185.908,390.66z"/>
</g>
<g>
</g>
<g>
</g>
<g>
</g>
<g>
</g>
<g>
</g>
<g>
</g>
<g>
</g>
<g>
</g>
<g>
</g>
<g>
</g>
<g>
</g>
<g>
</g>
<g>
</g>
<g>
</g>
<g>
</g>
</svg>
