<svg height="64" viewBox="0 0 64 64" width="64" xmlns="http://www.w3.org/2000/svg"><g fill="none" fill-rule="evenodd"><path d="m7 18h52v27.0047989c0 7.7293361-6.272415 13.9952011-14.0034499 13.9952011h-37.9965501z" fill="#b4dffb"/><path d="m45 7h14v14h-52v-14h15v5.007983c0 1.0918408.897616 1.992017 2.0048815 1.992017h.990237c1.1109817 0 2.0048815-.8918564 2.0048815-1.992017v-5.007983h13v5.007983c0 1.0918408.897616 1.992017 2.0048815 1.992017h.990237c1.1109817 0 2.0048815-.8918564 2.0048815-1.992017z" fill="#80d25b"/><rect fill="#9f5757" height="11" rx="1.5" width="3" x="23" y="2"/><rect fill="#9f5757" height="11" rx="1.5" width="3" x="41" y="2"/><g fill="#4796e7"><path d="m14 27h5v5h-5z"/><path d="m28 25h10v10h-10z"/><path d="m43 25h10v10h-10z"/><path d="m12 40h10v10h-10z"/><path d="m28 40h10v10h-10z"/><path d="m43 40h10v10h-10z"/></g><path d="m13.1777537 35.8383737c-3.50537952-4.4464277-1.8671068-15.3245239 6.2591868-8.8103799 6.6853036 5.3590274-4.2959686 10.0483993-4.9902982 3.8248422-.0871891-.7815113 1.4643146-2.4278853 1.6679047-1.6683375" stroke="#e43535" stroke-linecap="round"/></g></svg>