<?xml version="1.0" encoding="iso-8859-1"?>
<!-- Generator: Adobe Illustrator 19.0.0, SVG Export Plug-In . SVG Version: 6.00 Build 0)  -->
<svg version="1.1" id="Layer_1" xmlns="http://www.w3.org/2000/svg" xmlns:xlink="http://www.w3.org/1999/xlink" x="0px" y="0px"
	 viewBox="0 0 512.001 512.001" style="enable-background:new 0 0 512.001 512.001;" xml:space="preserve">
<path style="fill:#57545C;" d="M88.198,512H11.953c-5.901,0-10.686-4.784-10.686-10.686V56.712c0-5.901,4.784-10.686,10.686-10.686
	h66.015L88.198,512z"/>
<path style="fill:#77757E;" d="M131.663,512H55.418c-5.901,0-10.686-4.784-10.686-10.686V56.712c0-5.901,4.784-10.686,10.686-10.686
	h66.016L131.663,512z"/>
<path style="fill:#C6C3CB;" d="M164.266,46.026H98.25c-5.901,0-10.686,4.784-10.686,10.686v444.603
	c0,5.901,4.784,10.686,10.686,10.686h335.664c5.901,0,10.686-4.784,10.686-10.686v-105.58v-70.513V56.712
	c0-5.901-4.784-10.686-10.686-10.686h-64.288h-36.719h-45.126H164.266z"/>
<polygon style="fill:#FF7956;" points="444.6,141.916 174.829,141.916 119.301,141.916 1.267,141.916 1.267,46.026 444.6,46.026 "/>
<path style="opacity:0.26;fill:#77757E;enable-background:new    ;" d="M87.565,326.222c0,38.391,31.122,69.513,69.513,69.513H444.6
	V141.916H87.565V326.222z"/>
<g>
	<path style="fill:#C6C3CB;" d="M187.344,93.614h-9.436c-7.504,0-13.643-6.139-13.643-13.643V13.643
		C164.266,6.139,170.405,0,177.908,0h9.436c7.504,0,13.643,6.139,13.643,13.643v66.33C200.986,87.476,194.847,93.614,187.344,93.614
		z"/>
	<path style="fill:#C6C3CB;" d="M355.984,93.614h-9.436c-7.503,0-13.643-6.139-13.643-13.643V13.643
		C332.907,6.139,339.046,0,346.548,0h9.436c7.503,0,13.643,6.139,13.643,13.643v66.33C369.627,87.476,363.488,93.614,355.984,93.614
		z"/>
</g>
<rect x="1.267" y="46.025" style="fill:#FF5023;" width="86.3" height="95.891"/>
<g>
	<path style="fill:#57545C;" d="M196.362,391.71c-4.494,0-8.137-3.643-8.137-8.137V193.272l-29.429,26.976
		c-3.312,3.036-8.46,2.813-11.498-0.5c-3.037-3.312-2.813-8.46,0.5-11.498l43.064-39.476c2.379-2.18,5.823-2.748,8.775-1.45
		c2.954,1.3,4.861,4.222,4.861,7.448v208.798C204.499,388.067,200.856,391.71,196.362,391.71z"/>
	<path style="fill:#57545C;" d="M341.044,237.694v-26.197c0-27.776-22.597-50.374-50.374-50.374s-50.374,22.598-50.374,50.374
		v26.197c0,18.291,9.802,34.333,24.426,43.158c-14.624,8.825-24.426,24.868-24.426,43.158c0,4.494,3.643,8.137,8.137,8.137
		c4.494,0,8.137-3.643,8.137-8.137c0-18.802,15.297-34.099,34.099-34.099s34.099,15.297,34.099,34.099
		c0,4.494,3.643,8.137,8.137,8.137s8.137-3.643,8.137-8.137c0-18.291-9.802-34.333-24.426-43.158
		C331.244,272.027,341.044,255.984,341.044,237.694z M324.769,237.694c0,18.802-15.297,34.099-34.099,34.099
		s-34.099-15.297-34.099-34.099v-26.197c0-18.802,15.297-34.099,34.099-34.099s34.099,15.297,34.099,34.099V237.694z"/>
</g>
<path style="fill:#DFDFE2;" d="M155.677,395.734c38.391,0,69.513-31.122,69.513-69.513h137.123h43.4h105.021
	c0,38.391-31.122,69.513-69.513,69.513H155.079"/>
<g>
</g>
<g>
</g>
<g>
</g>
<g>
</g>
<g>
</g>
<g>
</g>
<g>
</g>
<g>
</g>
<g>
</g>
<g>
</g>
<g>
</g>
<g>
</g>
<g>
</g>
<g>
</g>
<g>
</g>
</svg>
