<?xml version="1.0" encoding="iso-8859-1"?>
<!-- Generator: Adobe Illustrator 19.0.0, SVG Export Plug-In . SVG Version: 6.00 Build 0)  -->
<svg version="1.1" id="Layer_1" xmlns="http://www.w3.org/2000/svg" xmlns:xlink="http://www.w3.org/1999/xlink" x="0px" y="0px"
	 viewBox="0 0 442 442" style="enable-background:new 0 0 442 442;" xml:space="preserve">
<g>
	<rect x="8" y="306.5" style="fill:#D1D5D8;" width="426" height="69.5"/>
	<rect x="8" y="66" style="fill:#ECF0F1;" width="426" height="240.5"/>
	<polygon style="fill:#3E81C8;" points="247.41,159.78 247.41,111.25 193.59,111.25 193.59,159.78 145.5,159.78 145.5,212.72 
		193.59,212.72 193.59,261.25 247.41,261.25 247.41,212.72 295.5,212.72 295.5,159.78 	"/>
	<g>
		<path d="M434,58H8c-4.42,0-8,3.58-8,8v310c0,4.42,3.58,8,8,8h426c4.42,0,8-3.58,8-8V66C442,61.58,438.42,58,434,58z M426,368H16
			v-53.5h410V368z M426,298.5H16V74h410V298.5z"/>
		<path d="M373,341c0,4.42-3.58,8-8,8h-8c-4.42,0-8-3.58-8-8s3.58-8,8-8h8C369.42,333,373,336.58,373,341z"/>
		<path d="M333,341c0,4.42-3.58,8-8,8h-8c-4.42,0-8-3.58-8-8s3.58-8,8-8h8C329.42,333,333,336.58,333,341z"/>
		<path d="M293,341c0,4.42-3.58,8-8,8h-8c-4.42,0-8-3.58-8-8s3.58-8,8-8h8C289.42,333,293,336.58,293,341z"/>
		<path d="M413,341c0,4.42-3.58,8-8,8h-8c-4.42,0-8-3.58-8-8s3.58-8,8-8h8C409.42,333,413,336.58,413,341z"/>
		<path d="M53,341c0,4.42-3.58,8-8,8h-8c-4.42,0-8-3.58-8-8s3.58-8,8-8h8C49.42,333,53,336.58,53,341z"/>
		<path d="M93,341c0,4.42-3.58,8-8,8h-8c-4.42,0-8-3.58-8-8s3.58-8,8-8h8C89.42,333,93,336.58,93,341z"/>
		<path d="M133,341c0,4.42-3.58,8-8,8h-8c-4.42,0-8-3.58-8-8s3.58-8,8-8h8C129.42,333,133,336.58,133,341z"/>
		<path d="M253,341c0,4.42-3.58,8-8,8h-8c-4.42,0-8-3.58-8-8s3.58-8,8-8h8C249.42,333,253,336.58,253,341z"/>
		<path d="M213,341c0,4.42-3.58,8-8,8h-8c-4.42,0-8-3.58-8-8s3.58-8,8-8h8C209.42,333,213,336.58,213,341z"/>
		<path d="M173,341c0,4.42-3.58,8-8,8h-8c-4.42,0-8-3.58-8-8s3.58-8,8-8h8C169.42,333,173,336.58,173,341z"/>
		<path d="M295.5,151.78h-40.09v-40.53c0-4.42-3.58-8-8-8h-53.82c-4.42,0-8,3.58-8,8v40.53H145.5c-4.42,0-8,3.58-8,8v52.94
			c0,4.42,3.58,8,8,8h40.09v40.53c0,4.42,3.58,8,8,8h53.82c4.42,0,8-3.58,8-8v-40.53h40.09c4.42,0,8-3.58,8-8v-52.94
			C303.5,155.36,299.92,151.78,295.5,151.78z M287.5,204.72h-40.09c-4.42,0-8,3.58-8,8v40.53h-37.82v-40.53c0-4.42-3.58-8-8-8H153.5
			v-36.94h40.09c4.42,0,8-3.58,8-8v-40.53h37.82v40.53c0,4.42,3.58,8,8,8h40.09V204.72z"/>
		<path d="M397,111.25v150c0,4.42-3.58,8-8,8s-8-3.58-8-8v-150c0-4.42,3.58-8,8-8S397,106.83,397,111.25z"/>
		<path d="M358,111.25v150c0,4.42-3.58,8-8,8s-8-3.58-8-8v-150c0-4.42,3.58-8,8-8S358,106.83,358,111.25z"/>
		<path d="M103,106.75c0,4.42-3.58,8-8,8H43c-4.42,0-8-3.58-8-8s3.58-8,8-8h52C99.42,98.75,103,102.33,103,106.75z"/>
		<path d="M103,146.5c0,4.42-3.58,8-8,8H43c-4.42,0-8-3.58-8-8s3.58-8,8-8h52C99.42,138.5,103,142.08,103,146.5z"/>
		<path d="M103,186.25c0,4.42-3.58,8-8,8H43c-4.42,0-8-3.58-8-8s3.58-8,8-8h52C99.42,178.25,103,181.83,103,186.25z"/>
		<path d="M103,226c0,4.42-3.58,8-8,8H43c-4.42,0-8-3.58-8-8s3.58-8,8-8h52C99.42,218,103,221.58,103,226z"/>
		<path d="M103,265.75c0,4.42-3.58,8-8,8H43c-4.42,0-8-3.58-8-8s3.58-8,8-8h52C99.42,257.75,103,261.33,103,265.75z"/>
	</g>
</g>
<g>
</g>
<g>
</g>
<g>
</g>
<g>
</g>
<g>
</g>
<g>
</g>
<g>
</g>
<g>
</g>
<g>
</g>
<g>
</g>
<g>
</g>
<g>
</g>
<g>
</g>
<g>
</g>
<g>
</g>
</svg>
