<svg width="512" height="512" xmlns="http://www.w3.org/2000/svg" xml:space="preserve" version="1.1">

 <g>
  <title>Layer 1</title>
  <polygon id="svg_1" fill="#BCBCBC" points="197.84,90.881 168.72,56 58.16,56 23.28,90.881 23.28,137.441 488.72,137.441 488.72,90.881   "/>
  <rect id="svg_2" fill="#afbac6" height="318.558" width="512" y="137.442"/>
  <rect id="svg_3" fill="#FFFFFF" height="23.28" width="407.281" y="114.163" x="52.399"/>
  <g id="svg_13"/>
  <g id="svg_14"/>
  <g id="svg_15"/>
  <g id="svg_16"/>
  <g id="svg_17"/>
  <g id="svg_18"/>
  <g id="svg_19"/>
  <g id="svg_20"/>
  <g id="svg_21"/>
  <g id="svg_22"/>
  <g id="svg_23"/>
  <g id="svg_24"/>
  <g id="svg_25"/>
  <g id="svg_26"/>
  <g id="svg_27"/>
  <g stroke="null">
   <path stroke="null" fill="#C7CFE2" d="m414.58633,175.06894l-335.17266,0c-6.85547,0 -12.41367,5.5582 -12.41367,12.41367l0,217.24172c0,6.85547 5.5582,12.41367 12.41367,12.41367l335.17266,0c6.85617,0 12.41367,-5.5582 12.41367,-12.41367l0,-217.24172c0,-6.85547 -5.5575,-12.41367 -12.41367,-12.41367z"/>
   <path stroke="null" fill="#FFFFFF" d="m383.26914,404.72433l-272.53828,0c-3.58383,0 -6.48914,-2.77945 -6.48914,-6.20719l0,-204.82734c0,-3.42773 2.90531,-6.20719 6.48914,-6.20719l272.53969,0c3.58383,0 6.48914,2.77945 6.48914,6.20719l0,204.82734c-0.00141,3.42773 -2.90672,6.20719 -6.49055,6.20719z"/>
   <path stroke="null" fill="#00AAF0" d="m352.51727,317.82792l-148.96547,0c-6.85617,0 -12.41367,-5.5575 -12.41367,-12.41367l0,-93.10359c0,-6.85617 5.5575,-12.41367 12.41367,-12.41367l148.96547,0c6.85617,0 12.41367,5.5575 12.41367,12.41367l0,93.10359c0,6.85617 -5.5575,12.41367 -12.41367,12.41367z"/>
   <path stroke="null" fill="#0096DC" d="m302.86187,212.31066l0,93.10359c0,6.85547 -5.5582,12.41367 -12.41367,12.41367l21.3743,0c2.1382,-3.6668 3.45305,-7.87219 3.45305,-12.41367l0,-93.10359c0,-4.54219 -1.31484,-8.74688 -3.45305,-12.41367l-21.3743,0c6.85547,-0.0007 12.41367,5.5582 12.41367,12.41367z"/>
   <rect stroke="null" fill="#464655" height="24.82734" width="74.48273" y="224.72433" x="290.4482"/>
   <path stroke="null" fill="#E4EAF6" d="m340.10359,280.5862l-43.4482,0l0,-12.41367l43.4482,0c3.43055,0 6.20719,2.77594 6.20719,6.20719c-0.0007,3.43055 -2.77664,6.20648 -6.20719,6.20648z"/>
   <rect stroke="null" fill="#C7CFE2" height="12.41367" width="18.62086" y="268.17253" x="296.65539"/>
   <g stroke="null">
    <path stroke="null" fill="#959CB5" d="m153.89641,342.65527l-12.41367,0c-3.43055,0 -6.20719,-2.77594 -6.20719,-6.20719c0,-3.43055 2.77594,-6.20719 6.20719,-6.20719l12.41367,0c3.43055,0 6.20719,2.77594 6.20719,6.20719c0,3.43125 -2.77594,6.20719 -6.20719,6.20719z"/>
    <path stroke="null" fill="#959CB5" d="m153.89641,392.31066l-12.41367,0c-3.43055,0 -6.20719,-2.77594 -6.20719,-6.20719s2.77594,-6.20719 6.20719,-6.20719l12.41367,0c3.43055,0 6.20719,2.77594 6.20719,6.20719s-2.77594,6.20719 -6.20719,6.20719z"/>
   </g>
   <path stroke="null" fill="#C7CFE2" d="m352.51727,392.31066l-6.20719,0c-3.43055,0 -6.20719,-2.77594 -6.20719,-6.20719s2.77594,-6.20719 6.20719,-6.20719l6.20719,0c3.43055,0 6.20719,2.77594 6.20719,6.20719s-2.77664,6.20719 -6.20719,6.20719z"/>
   <path stroke="null" fill="#959CB5" d="m153.89641,367.48261l-12.41367,0c-3.43055,0 -6.20719,-2.77594 -6.20719,-6.20719c0,-3.43055 2.77594,-6.20719 6.20719,-6.20719l12.41367,0c3.43055,0 6.20719,2.77594 6.20719,6.20719c0,3.43125 -2.77594,6.20719 -6.20719,6.20719z"/>
   <g stroke="null">
    <path stroke="null" fill="#C7CFE2" d="m247,367.48261l-68.27555,0c-3.43055,0 -6.20719,-2.77594 -6.20719,-6.20719c0,-3.43055 2.77594,-6.20719 6.20719,-6.20719l68.27555,0c3.43055,0 6.20719,2.77594 6.20719,6.20719c0,3.43125 -2.77664,6.20719 -6.20719,6.20719z"/>
    <path stroke="null" fill="#C7CFE2" d="m271.82734,342.65527l-93.10289,0c-3.43055,0 -6.20719,-2.77594 -6.20719,-6.20719c0,-3.43055 2.77594,-6.20719 6.20719,-6.20719l93.10289,0c3.43055,0 6.20719,2.77594 6.20719,6.20719c0,3.43125 -2.77594,6.20719 -6.20719,6.20719z"/>
    <path stroke="null" fill="#C7CFE2" d="m271.82734,392.31066l-93.10289,0c-3.43055,0 -6.20719,-2.77594 -6.20719,-6.20719s2.77594,-6.20719 6.20719,-6.20719l93.10289,0c3.43055,0 6.20719,2.77594 6.20719,6.20719s-2.77594,6.20719 -6.20719,6.20719z"/>
   </g>
   <g stroke="null">
    <path stroke="null" fill="#E4EAF6" d="m296.65539,392.31066c-3.43055,0 -6.23742,-2.77594 -6.23742,-6.20719s2.7457,-6.20719 6.17695,-6.20719l0.06047,0c3.43055,0 6.20719,2.77594 6.20719,6.20719s-2.77664,6.20719 -6.20719,6.20719z"/>
    <path stroke="null" fill="#E4EAF6" d="m321.48273,392.31066c-3.43055,0 -6.23742,-2.77594 -6.23742,-6.20719s2.7457,-6.20719 6.17695,-6.20719l0.06047,0c3.43055,0 6.20719,2.77594 6.20719,6.20719s-2.77664,6.20719 -6.20719,6.20719z"/>
   </g>
   <g stroke="null">
    <path stroke="null" fill="#C7CFE2" d="m352.51727,367.48261l-6.20719,0c-3.43055,0 -6.20719,-2.77594 -6.20719,-6.20719c0,-3.43055 2.77594,-6.20719 6.20719,-6.20719l6.20719,0c3.43055,0 6.20719,2.77594 6.20719,6.20719c0,3.43125 -2.77664,6.20719 -6.20719,6.20719z"/>
    <path stroke="null" fill="#C7CFE2" d="m352.51727,342.65527l-6.20719,0c-3.43055,0 -6.20719,-2.77594 -6.20719,-6.20719c0,-3.43055 2.77594,-6.20719 6.20719,-6.20719l6.20719,0c3.43055,0 6.20719,2.77594 6.20719,6.20719c0,3.43125 -2.77664,6.20719 -6.20719,6.20719z"/>
   </g>
   <g stroke="null">
    <path stroke="null" fill="#E4EAF6" d="m271.88781,367.48261c-3.43055,0 -6.23742,-2.77594 -6.23742,-6.20719c0,-3.43055 2.7457,-6.20719 6.17695,-6.20719l0.06047,0c3.43055,0 6.20719,2.77594 6.20719,6.20719c0,3.43125 -2.77594,6.20719 -6.20719,6.20719z"/>
    <path stroke="null" fill="#E4EAF6" d="m296.65539,367.48261c-3.43055,0 -6.23742,-2.77594 -6.23742,-6.20719c0,-3.43055 2.7457,-6.20719 6.17695,-6.20719l0.06047,0c3.43055,0 6.20719,2.77594 6.20719,6.20719c-0.0007,3.43125 -2.77664,6.20719 -6.20719,6.20719z"/>
    <path stroke="null" fill="#E4EAF6" d="m321.48273,367.48261c-3.43055,0 -6.23742,-2.77594 -6.23742,-6.20719c0,-3.43055 2.7457,-6.20719 6.17695,-6.20719l0.06047,0c3.43055,0 6.20719,2.77594 6.20719,6.20719c0,3.43125 -2.77664,6.20719 -6.20719,6.20719z"/>
    <path stroke="null" fill="#E4EAF6" d="m296.71586,342.65527c-3.43055,0 -6.23742,-2.77594 -6.23742,-6.20719c0,-3.43055 2.7457,-6.20719 6.17695,-6.20719l0.06047,0c3.43055,0 6.20719,2.77594 6.20719,6.20719c-0.0007,3.43125 -2.77664,6.20719 -6.20719,6.20719z"/>
    <path stroke="null" fill="#E4EAF6" d="m321.48273,342.65527c-3.43055,0 -6.23742,-2.77594 -6.23742,-6.20719c0,-3.43055 2.7457,-6.20719 6.17695,-6.20719l0.06047,0c3.43055,0 6.20719,2.77594 6.20719,6.20719c0,3.43125 -2.77664,6.20719 -6.20719,6.20719z"/>
   </g>
   <path stroke="null" fill="#00C3FF" d="m290.4482,317.82792l-148.96547,0c-6.85617,0 -12.41367,-5.5575 -12.41367,-12.41367l0,-93.10359c0,-6.85617 5.5575,-12.41367 12.41367,-12.41367l148.96547,0c6.85617,0 12.41367,5.5575 12.41367,12.41367l0,93.10359c0,6.85617 -5.5575,12.41367 -12.41367,12.41367z"/>
   <g stroke="null">
    <path stroke="null" fill="#C7CFE2" d="m240.79281,286.79339l-12.41367,0c-3.43055,0 -6.20719,-2.77594 -6.20719,-6.20719c0,-3.43055 2.77594,-6.20719 6.20719,-6.20719l12.41367,0c3.43055,0 6.20719,2.77594 6.20719,6.20719c0,3.43055 -2.77594,6.20719 -6.20719,6.20719z"/>
    <path stroke="null" fill="#C7CFE2" d="m278.03453,286.79339l-12.41367,0c-3.43055,0 -6.20719,-2.77594 -6.20719,-6.20719c0,-3.43055 2.77594,-6.20719 6.20719,-6.20719l12.41367,0c3.43055,0 6.20719,2.77594 6.20719,6.20719c0,3.43055 -2.77664,6.20719 -6.20719,6.20719z"/>
    <path stroke="null" fill="#C7CFE2" d="m166.31008,286.79339l-12.41367,0c-3.43055,0 -6.20719,-2.77594 -6.20719,-6.20719c0,-3.43055 2.77594,-6.20719 6.20719,-6.20719l12.41367,0c3.43055,0 6.20719,2.77594 6.20719,6.20719c0,3.43055 -2.77594,6.20719 -6.20719,6.20719z"/>
    <path stroke="null" fill="#C7CFE2" d="m203.5518,286.79339l-12.41367,0c-3.43055,0 -6.20719,-2.77594 -6.20719,-6.20719c0,-3.43055 2.77594,-6.20719 6.20719,-6.20719l12.41367,0c3.43055,0 6.20719,2.77594 6.20719,6.20719c-0.0007,3.43055 -2.77664,6.20719 -6.20719,6.20719z"/>
   </g>
   <g stroke="null">
    <path stroke="null" fill="#FFDC64" d="m160.10359,230.93081l18.62086,0c3.42773,0 6.20719,2.77945 6.20719,6.20719l0,12.41367c0,3.42773 -2.77945,6.20719 -6.20719,6.20719l-18.62086,0c-3.42773,0 -6.20719,-2.77945 -6.20719,-6.20719l0,-12.41367c0,-3.42773 2.77945,-6.20719 6.20719,-6.20719z"/>
    <circle stroke="null" fill="#FFDC64" r="12.41367" cy="243.34519" cx="265.62086"/>
   </g>
   <circle stroke="null" fill="#FF5050" r="12.41367" cy="243.34519" cx="240.79281"/>
   <circle stroke="null" fill="#65687A" r="6.20719" cy="193.6898" cx="85.62086"/>
   <path stroke="null" fill="#959CB5" d="m408.37914,311.62073l0,0c-3.42773,0 -6.20719,-2.77945 -6.20719,-6.20719l0,-18.62086c0,-3.42773 2.77945,-6.20719 6.20719,-6.20719l0,0c3.42773,0 6.20719,2.77945 6.20719,6.20719l0,18.62086c0,3.42773 -2.77945,6.20719 -6.20719,6.20719z"/>
   <g stroke="null"/>
   <g stroke="null"/>
   <g stroke="null"/>
   <g stroke="null"/>
   <g stroke="null"/>
   <g stroke="null"/>
   <g stroke="null"/>
   <g stroke="null"/>
   <g stroke="null"/>
   <g stroke="null"/>
   <g stroke="null"/>
   <g stroke="null"/>
   <g stroke="null"/>
   <g stroke="null"/>
   <g stroke="null"/>
  </g>
 </g>
</svg>