<svg width="633" height="512" xmlns="http://www.w3.org/2000/svg" xml:space="preserve" version="1.1">

 <g>
  <title>Layer 1</title>
  <path id="svg_1" fill="#8391AE" d="m0,355.2l0,-324c0.102,-5.701 4.699,-10.297 10.4,-10.4l491.2,0c5.701,0.102 10.297,4.699 10.4,10.4l0,324l-512,0l0,0z"/>
  <g id="svg_2">
   <path id="svg_3" fill="#BCBCBC" d="m512,355.2l0,41.6c-0.102,5.701 -4.699,10.297 -10.4,10.4l-491.2,0c-5.7,-0.102 -10.297,-4.699 -10.4,-10.401l0,-41.6l512,0.001l0,0z"/>
   <rect id="svg_4" fill="#BCBCBC" height="10.4" width="219.201" y="480.8" x="146.404"/>
  </g>
  <polygon id="svg_5" fill="#2D2D2D" points="328.801,480.8 183.2,480.8 193.6,407.2 318.4,407.2 "/>
  <rect id="svg_6" fill="#FFFFFF" height="292.798" width="470.401" y="41.6" x="20.8"/>
  <polygon id="svg_7" points="318.4,407.2 193.6,407.2 187.792,448.281 320.272,420.424 "/>
  <g id="svg_8">
   <rect id="svg_9" fill="#999999" height="12" width="313.997" y="252.322" x="99.001"/>
   <rect id="svg_10" fill="#00ff00" height="12" width="199.738" y="292.222" x="156.14"/>
   <circle id="svg_11" fill="#999999" r="33.267" cy="109.82" cx="156.374"/>
  </g>
  <path id="svg_12" fill="#007fff" d="m213.776,216.864l0,-29.456c0,-31.008 -33.832,-31.568 -33.832,-31.568l-47.144,0c0,0 -33.832,0.384 -33.832,31.568l0,29.456l114.808,0z"/>
  <circle id="svg_13" fill="#999999" r="33.267" cy="109.82" cx="355.605"/>
  <path id="svg_14" fill="#ff7f00" d="m413.008,216.864l0,-29.456c0,-31.008 -33.832,-31.568 -33.832,-31.568l-47.12,0c0,0 -33.832,0.384 -33.832,31.568l0,29.456l114.784,0z"/>
  <g id="svg_15"/>
  <g id="svg_16"/>
  <g id="svg_17"/>
  <g id="svg_18"/>
  <g id="svg_19"/>
  <g id="svg_20"/>
  <g id="svg_21"/>
  <g id="svg_22"/>
  <g id="svg_23"/>
  <g id="svg_24"/>
  <g id="svg_25"/>
  <g id="svg_26"/>
  <g id="svg_27"/>
  <g id="svg_28"/>
  <g id="svg_29"/>
  <g stroke="null">
   <path stroke="null" fill="#6D6D6D" d="m625.60968,254.06127l-112.74355,0c-3.65161,0 -6.84677,0.9129 -10.49839,6.39032l-5.93387,9.12903l-133.28388,0c-7.75968,0 -14.15,6.39032 -14.15,14.15l0,179.38549c0,7.75968 6.39032,14.15 14.15,14.15l254.70001,0c7.75968,0 14.15,-6.39032 14.15,-14.15l0,-139.21775l0,-40.16774l0,-23.73548c0,-3.19516 -2.73871,-5.93387 -6.39032,-5.93387z"/>
   <path stroke="null" fill="#565656" d="m626.06613,438.92418c3.65161,-2.73871 5.93387,-6.84677 5.93387,-11.41129l0,-103.61452l0,-40.16774l0,-23.73548c0,-3.65161 -2.73871,-6.39032 -6.39032,-6.39032l-112.74355,0c-3.65161,0 -6.84677,0.9129 -10.49839,6.39032l-5.93387,9.12903l-133.28388,0c-7.30323,0 -13.2371,5.47742 -14.15,12.32419l277.06614,157.47581z"/>
   <path stroke="null" fill="#262523" d="m360.86773,288.29514l265.1984,150.62904c3.65161,-2.73871 5.93387,-6.84677 5.93387,-11.41129l0,-103.61452l0,-25.56129l-17.34516,-10.04194c0,0 -253.78711,0 -253.78711,0z"/>
   <rect stroke="null" fill="#FFFFFF" height="169.34355" width="241.91936" y="288.29514" x="369.54031"/>
   <rect stroke="null" fill="#EFEFEF" height="169.34355" width="115.02581" y="288.29514" x="496.43387"/>
   <path stroke="null" fill="#0491BC" d="m632,469.04999c0,7.75968 -6.39032,14.15 -14.15,14.15l-254.70001,0c-7.75968,0 -14.15,-5.93387 -14.15,-14.15l4.56452,-143.78226c0,-7.75968 6.39032,-14.15 14.15,-14.15l246.02743,0c7.75968,0 14.15,6.39032 14.15,14.15l4.10806,143.78226z"/>
   <path stroke="null" fill="#00ADDB" d="m630.17419,476.35321l-275.69678,-156.56291c-0.45645,1.82581 -0.9129,3.65161 -0.9129,5.47742l-4.56452,143.78226c0,7.75968 6.39032,14.15 14.15,14.15l254.70001,0c5.02097,0 9.58548,-2.73871 12.32419,-6.84677z"/>
   <path stroke="null" fill="#0491BC" d="m531.58064,400.58224l-5.02097,0c-0.9129,-2.73871 -1.82581,-5.47742 -3.19516,-8.21613l3.65161,-3.65161c4.10806,-4.10806 4.10806,-10.49839 0,-14.15c-4.10806,-4.10806 -10.49839,-4.10806 -14.15,0l-4.10806,3.65161c-2.73871,-1.36935 -5.47742,-2.73871 -8.21613,-3.19516l0,-5.02097c0,-5.47742 -4.56452,-10.04194 -10.04194,-10.04194s-10.04194,4.56452 -10.04194,10.04194l0,5.02097c-2.73871,0.9129 -5.47742,1.82581 -8.21613,3.19516l-3.65161,-3.65161c-4.10806,-4.10806 -10.49839,-4.10806 -14.15,0c-4.10806,4.10806 -4.10806,10.49839 0,14.15l3.65161,3.65161c-1.36935,2.73871 -2.73871,5.47742 -3.19516,8.21613l-5.47742,0c-5.47742,0 -10.04194,4.56452 -10.04194,10.04194s4.56452,10.04194 10.04194,10.04194l5.02097,0c0.9129,2.73871 1.82581,5.47742 3.19516,8.21613l-3.19516,3.65161c-4.10806,4.10806 -4.10806,10.49839 0,14.15c1.82581,1.82581 4.56452,3.19516 7.30323,3.19516s5.02097,-0.9129 7.30323,-3.19516l3.65161,-3.65161c2.73871,1.36935 5.47742,2.73871 8.21613,3.19516l0,5.02097c0,5.47742 4.56452,10.04194 10.04194,10.04194c5.47742,0 10.04194,-4.56452 10.04194,-10.04194l0,-5.02097c2.73871,-0.9129 5.47742,-1.82581 8.21613,-3.19516l3.65161,3.65161c1.82581,1.82581 4.56452,3.19516 7.30323,3.19516s5.02097,-0.9129 7.30323,-3.19516c4.10806,-4.10806 4.10806,-10.49839 0,-14.15l-3.65161,-3.65161c1.36935,-2.73871 2.73871,-5.47742 3.19516,-8.21613l4.56452,0c5.47742,0 10.04194,-4.56452 10.04194,-10.04194s-4.56452,-10.04194 -10.04194,-10.04194zm-23.73548,10.04194c0,9.58548 -7.75968,17.34516 -17.34516,17.34516s-17.34516,-7.75968 -17.34516,-17.34516s7.75968,-17.34516 17.34516,-17.34516s17.34516,8.21613 17.34516,17.34516z"/>
   <path stroke="null" fill="#FFFFFF" d="m531.58064,389.6274l-5.02097,0c-0.9129,-2.73871 -1.82581,-5.47742 -3.19516,-8.21613l3.65161,-3.65161c4.10806,-4.10806 4.10806,-10.49839 0,-14.15c-4.10806,-4.10806 -10.49839,-4.10806 -14.15,0l-4.10806,3.65161c-2.73871,-1.36935 -5.47742,-2.73871 -8.21613,-3.19516l0,-5.02097c0,-5.47742 -4.56452,-10.04194 -10.04194,-10.04194s-10.04194,4.56452 -10.04194,10.04194l0,5.02097c-2.73871,0.9129 -5.47742,1.82581 -8.21613,3.19516l-3.65161,-3.65161c-4.10806,-4.10806 -10.49839,-4.10806 -14.15,0c-4.10806,4.10806 -4.10806,10.49839 0,14.15l3.65161,3.65161c-1.36935,2.73871 -2.73871,5.47742 -3.19516,8.21613l-5.47742,0c-5.47742,0 -10.04194,4.56452 -10.04194,10.04194s4.56452,10.04194 10.04194,10.04194l5.02097,0c0.9129,2.73871 1.82581,5.47742 3.19516,8.21613l-3.65161,3.65161c-4.10806,4.10806 -4.10806,10.49839 0,14.15c1.82581,1.82581 4.56452,3.19516 7.30323,3.19516s5.02097,-0.9129 7.30323,-3.19516l3.65161,-3.19516c2.73871,1.36935 5.47742,2.73871 8.21613,3.19516l0,5.02097c0,5.47742 4.56452,10.04194 10.04194,10.04194s10.04194,-4.56452 10.04194,-10.04194l0,-5.02097c2.73871,-0.9129 5.47742,-1.82581 8.21613,-3.19516l3.65161,3.65161c1.82581,1.82581 4.56452,3.19516 7.30323,3.19516s5.02097,-0.9129 7.30323,-3.19516c4.10806,-4.10806 4.10806,-10.49839 0,-14.15l-3.65161,-3.65161c1.36935,-2.73871 2.73871,-5.47742 3.19516,-8.21613l5.02097,0c5.47742,0 10.04194,-4.56452 10.04194,-10.04194s-4.56452,-10.49839 -10.04194,-10.49839zm-23.73548,10.04194c0,9.58548 -7.75968,17.34516 -17.34516,17.34516s-17.34516,-7.75968 -17.34516,-17.34516s7.75968,-17.34516 17.34516,-17.34516s17.34516,7.75968 17.34516,17.34516z"/>
   <g stroke="null"/>
   <g stroke="null"/>
   <g stroke="null"/>
   <g stroke="null"/>
   <g stroke="null"/>
   <g stroke="null"/>
   <g stroke="null"/>
   <g stroke="null"/>
   <g stroke="null"/>
   <g stroke="null"/>
   <g stroke="null"/>
   <g stroke="null"/>
   <g stroke="null"/>
   <g stroke="null"/>
   <g stroke="null"/>
  </g>
 </g>
</svg>