<svg width="512" height="512" xmlns="http://www.w3.org/2000/svg" version="1.1" xml:space="preserve">
 <g>
  <title>Layer 1</title>
  <rect x="187.317" y="387.122" width="137.366" height="74.927" fill="#78B9EB" id="svg_1"/>
  <path fill="#0052B4" opacity="undefined" d="m-59,32.22l512,0l0,374.634l-512,0l0,-374.634z" id="svg_2"/>
  <rect stroke="null" x="233" y="31.22" width="279" height="374.634" fill="#003778" id="svg_3"/>
  <rect x="143.61" y="443.317" width="224.78" height="37.463" fill="#AED5F3" id="svg_4"/>
  <rect x="256" y="443.317" width="112.39" height="37.463" fill="#93C7EF" id="svg_5"/>
  <path d="m211.098,207.19724l-93.67854,0c-5.01931,-21.15778 -24.05799,-36.94889 -46.72772,-36.94889c-26.48599,0 -48.03374,21.54775 -48.03374,48.03374s21.54775,48.03374 48.03374,48.03374c22.67032,0 41.70841,-15.7917 46.72772,-36.94889l30.86501,0l0,18.47415l22.1691,0l0,-18.47415l7.3899,0l0,25.86405l22.1691,0l0,-25.86405l11.08484,0l0,-22.16969l0.00059,0l0,-0.00001zm-140.40626,36.94889c-14.26141,0 -25.86405,-11.60263 -25.86405,-25.86405s11.60263,-25.86405 25.86405,-25.86405s25.86405,11.60263 25.86405,25.86405s-11.60263,25.86405 -25.86405,25.86405z" fill="#FFFFFF" id="svg_6" stroke="null"/>
  <g id="svg_7"/>
  <g id="svg_8"/>
  <g id="svg_9"/>
  <g id="svg_10"/>
  <g id="svg_11"/>
  <g id="svg_12"/>
  <g id="svg_13"/>
  <g id="svg_14"/>
  <g id="svg_15"/>
  <g id="svg_16"/>
  <g id="svg_17"/>
  <g id="svg_18"/>
  <g id="svg_19"/>
  <g id="svg_20"/>
  <g id="svg_21"/>
  <rect id="svg_49" height="62" width="213" y="296" x="267" stroke="null" fill="#ffffff"/>
  <g id="svg_22" stroke="null">
   <g id="svg_23" stroke="null">
    <circle id="svg_27" cx="424.43946" cy="329.70297" r="13.23453" fill="#ff0000" stroke="null"/>
    <circle id="svg_28" cx="318.56319" cy="329.70297" r="13.23453" fill="#ff0000" stroke="null"/>
    <circle id="svg_29" cx="371.50132" cy="329.70297" r="13.23453" fill="#ff0000" stroke="null"/>
    <path id="svg_30" d="m430.01444,214.52562c-14.09279,-12.457 -32.59798,-20.03047 -52.84218,-20.03047l0,93.12479l79.88364,0l0,-13.23453c0,-0.93436 -0.02184,-1.86342 -0.05426,-2.78984c-0.78282,-22.68531 -11.06539,-42.99569 -26.9872,-57.06995z" fill="#8391AE" stroke="null"/>
    <path id="svg_31" d="m427.17894,131.25393c0,-27.57415 -22.43253,-50.0133 -50.00668,-50.0133l0,100.01998c27.57415,0 50.00668,-22.43253 50.00668,-50.00668z" fill="#8391AE" stroke="null"/>
    <path id="svg_32" d="m297.282,274.38541l0,13.23453l79.89026,0l0,-93.12479c-44.05114,0 -79.89026,35.83912 -79.89026,79.89026z" fill="#84D3DB" stroke="null"/>
    <path id="svg_33" d="m377.17225,181.26062l0,-100.01998c-27.57415,0 -50.0133,22.43915 -50.0133,50.0133c0,27.57415 22.43915,50.00668 50.0133,50.00668z" fill="#7AD6CA" stroke="null"/>
   </g>
   <g id="svg_34" stroke="null"/>
   <g id="svg_35" stroke="null"/>
   <g id="svg_36" stroke="null"/>
   <g id="svg_37" stroke="null"/>
   <g id="svg_38" stroke="null"/>
   <g id="svg_39" stroke="null"/>
   <g id="svg_40" stroke="null"/>
   <g id="svg_41" stroke="null"/>
   <g id="svg_42" stroke="null"/>
   <g id="svg_43" stroke="null"/>
   <g id="svg_44" stroke="null"/>
   <g id="svg_45" stroke="null"/>
   <g id="svg_46" stroke="null"/>
   <g id="svg_47" stroke="null"/>
   <g id="svg_48" stroke="null"/>
  </g>
 </g>

</svg>