<svg width="512" height="512" xmlns="http://www.w3.org/2000/svg" xml:space="preserve" version="1.1">

 <g>
  <title>Layer 1</title>
  <path id="svg_1" fill="#005fbf" d="m281.04,129.588l0,-14.968c24.424,-13.832 33.008,-44.84 19.176,-69.256c-13.832,-24.424 -44.84,-33.008 -69.256,-19.176s-33.008,44.84 -19.176,69.256c4.536,8.016 11.168,14.64 19.176,19.176l0,14.968c-47.352,2.216 -71.432,34.232 -71.432,55.752l0,17.672l192.944,0l0,-17.64c0,-21.52 -24.08,-53.536 -71.432,-55.784z"/>
  <path id="svg_2" fill="#007f3f" d="m121.512,418.996l0,-15.008c24.424,-13.832 33.008,-44.84 19.176,-69.256c-13.832,-24.424 -44.84,-33.008 -69.256,-19.176c-24.424,13.832 -33.008,44.84 -19.176,69.256c4.536,8.016 11.168,14.64 19.176,19.176l0,15c-47.352,2.224 -71.432,34.24 -71.432,55.76l0,17.672l192.944,0l0,-17.672c0,-21.52 -24.08,-53.536 -71.432,-55.752z"/>
  <path id="svg_3" fill="#ff7f00" d="m440.568,418.996l0,-15.008c24.424,-13.832 33.008,-44.84 19.176,-69.256c-13.832,-24.424 -44.84,-33.008 -69.256,-19.176s-33.008,44.84 -19.176,69.256c4.536,8.016 11.168,14.64 19.176,19.176l0,15c-47.352,2.216 -71.432,34.232 -71.432,55.752l0,17.672l192.944,0l0,-17.664c0,-21.52 -24.08,-53.536 -71.432,-55.752z"/>
  <path id="svg_4" fill="#cccccc" d="m256,275.276c-23.176,0 -41.968,18.792 -41.968,41.968s18.792,41.968 41.968,41.968s41.968,-18.792 41.968,-41.968l0,0c-0.008,-23.176 -18.792,-41.968 -41.968,-41.968zm0,67.304c-13.992,0 -25.336,-11.344 -25.336,-25.336s11.344,-25.336 25.336,-25.336s25.336,11.344 25.336,25.336l0,0c0,13.992 -11.344,25.336 -25.336,25.336l0,0z"/>
  <path id="svg_5" fill="#003f7f" d="m342.472,330.204l0,-25.928l-19.2,-1.92c-1.736,-7.856 -4.84,-15.336 -9.176,-22.112l12.232,-14.944l-18.328,-18.336l-14.928,12.224c-6.776,-4.344 -14.272,-7.464 -22.128,-9.208l-1.92,-19.152l-26.04,0l-1.92,19.152c-7.864,1.744 -15.36,4.864 -22.136,9.208l-14.928,-12.216l-18.336,18.336l12.224,14.944c-4.336,6.784 -7.44,14.272 -9.176,22.136l-19.2,1.92l0,25.928l19.2,1.92c1.736,7.856 4.848,15.352 9.184,22.128l-12.224,14.944l18.328,18.296l14.928,-12.216c6.784,4.352 14.28,7.472 22.144,9.208l1.92,19.152l26.032,0l1.92,-19.152c7.864,-1.744 15.36,-4.864 22.136,-9.216l14.92,12.224l18.336,-18.336l-12.232,-14.952c4.336,-6.768 7.44,-14.256 9.168,-22.104l19.2,-1.928zm-86.472,28.984c-23.176,0 -41.968,-18.792 -41.968,-41.968s18.792,-41.968 41.968,-41.968s41.968,18.792 41.968,41.968l0,0c-0.008,23.176 -18.792,41.96 -41.968,41.968z"/>
  <g id="svg_6"/>
  <g id="svg_7"/>
  <g id="svg_8"/>
  <g id="svg_9"/>
  <g id="svg_10"/>
  <g id="svg_11"/>
  <g id="svg_12"/>
  <g id="svg_13"/>
  <g id="svg_14"/>
  <g id="svg_15"/>
  <g id="svg_16"/>
  <g id="svg_17"/>
  <g id="svg_18"/>
  <g id="svg_19"/>
  <g id="svg_20"/>
 </g>
</svg>