<svg width="672" height="512" xmlns="http://www.w3.org/2000/svg" xml:space="preserve" version="1.1">

 <g>
  <title>Layer 1</title>
  <path id="svg_1" fill="#F28838" d="m230.772,312.165l-11.122,0l-13.336,0l-11.124,0l-68.539,0l-11.122,0l-13.338,0l-11.123,0c-3.489,0 -6.318,2.83 -6.318,6.32l0,85.305c0,3.489 2.828,6.318 6.318,6.318l11.124,0l13.336,0l11.122,0l68.539,0l11.124,0l13.336,0l11.122,0c3.492,0 6.32,-2.828 6.32,-6.318l0,-85.305c0.001,-3.489 -2.828,-6.32 -6.319,-6.32z"/>
  <path id="svg_2" fill="#4BAF78" d="m279.002,113.962l11.124,0l13.336,0l11.122,0l68.539,0l11.124,0l13.338,0l11.122,0c3.492,0 6.32,2.83 6.32,6.32l0,85.305c0,3.489 -2.828,6.318 -6.32,6.318l-11.122,0l-13.338,0l-11.124,0l-68.539,0l-11.122,0l-13.336,0l-11.124,0c-3.489,0 -6.318,-2.828 -6.318,-6.318l0,-85.305c0.001,-3.489 2.829,-6.32 6.318,-6.32z"/>
  <g id="svg_3">
   <path id="svg_4" fill="#FFB92E" d="m425.026,286.207c0,-6.172 -5.004,-11.178 -11.178,-11.178l-165.578,0c-6.172,0 -11.178,5.006 -11.178,11.178l0,112.721c0,6.176 5.006,11.178 11.178,11.178l165.579,0c6.174,0 11.178,-5.002 11.178,-11.178l0,-112.721l-0.001,0z"/>
   <path id="svg_5" fill="#FFB92E" d="m84.75,88.003c0,-6.173 5.004,-11.178 11.178,-11.178l165.576,0c6.174,0 11.181,5.005 11.181,11.178l0,112.722c0,6.175 -5.006,11.178 -11.181,11.178l-165.575,0c-6.174,0 -11.178,-5.003 -11.178,-11.178l0,-112.722l-0.001,0z"/>
  </g>
  <path id="svg_6" fill="#EF711D" d="m107.011,403.789l0,-85.305c0,-3.489 2.828,-6.32 6.318,-6.32l-11.137,0l-11.124,0c-3.489,0 -6.318,2.83 -6.318,6.32l0,85.305c0,3.489 2.828,6.318 6.318,6.318l11.124,0l11.137,0c-3.489,-0.001 -6.318,-2.829 -6.318,-6.318z"/>
  <path id="svg_7" fill="#299956" d="m294.945,205.586l0,-85.305c0,-3.489 2.828,-6.32 6.318,-6.32l-11.137,0l-11.124,0c-3.489,0 -6.318,2.83 -6.318,6.32l0,85.305c0,3.489 2.828,6.318 6.318,6.318l11.124,0l11.137,0c-3.489,-0.001 -6.318,-2.829 -6.318,-6.318z"/>
  <g id="svg_8">
   <path id="svg_9" fill="#EF9A1D" d="m259.352,398.928l0,-112.721c0,-6.172 5.006,-11.178 11.178,-11.178l-22.26,0c-6.172,0 -11.178,5.006 -11.178,11.178l0,112.721c0,6.176 5.006,11.178 11.178,11.178l22.261,0c-6.172,0 -11.179,-5.002 -11.179,-11.178z"/>
   <path id="svg_10" fill="#EF9A1D" d="m107.011,200.725l0,-112.722c0,-6.173 5.004,-11.178 11.178,-11.178l-22.26,0c-6.174,0 -11.178,5.005 -11.178,11.178l0,112.722c0,6.175 5.004,11.178 11.178,11.178l22.261,0c-6.174,0 -11.179,-5.003 -11.179,-11.178z"/>
  </g>
  <g id="svg_11">
   <path id="svg_12" fill="#7C7A75" d="m348.602,383.822l-35.084,0c-3.69,0 -6.678,2.991 -6.678,6.678l0,19.606l48.441,0l0,-19.606c-0.001,-3.688 -2.991,-6.678 -6.679,-6.678z"/>
   <path id="svg_13" fill="#7C7A75" d="m306.839,275.029l0,46.76c0,2.56 1.463,4.894 3.768,6.01c2.304,1.116 5.043,0.816 7.052,-0.771l13.399,-10.593l13.403,10.594c1.202,0.949 2.666,1.439 4.142,1.439c0.991,0 1.985,-0.219 2.91,-0.668c2.304,-1.116 3.769,-3.452 3.769,-6.01l0,-46.761l-48.443,0l0,0z"/>
   <path id="svg_14" fill="#7C7A75" d="m154.496,76.826l0,46.76c0,2.56 1.463,4.894 3.768,6.01c0.925,0.449 1.92,0.668 2.908,0.668c1.476,0 2.941,-0.489 4.143,-1.439l13.403,-10.593l13.4,10.592c2.007,1.587 4.746,1.888 7.051,0.771c2.304,-1.115 3.769,-3.45 3.769,-6.01l0,-46.759c0,0 -48.442,0 -48.442,0z"/>
   <path id="svg_15" fill="#7C7A75" d="m196.258,185.618l-35.084,0c-3.689,0 -6.678,2.99 -6.678,6.678l0,19.607l48.441,0l0,-19.607c0,-3.689 -2.99,-6.678 -6.679,-6.678z"/>
   <polygon id="svg_16" fill="#7C7A75" points="81.165,242.118 30.215,293.068 30.215,242.118  "/>
   <polygon id="svg_17" fill="#7C7A75" points="430.837,242.118 481.784,293.068 481.784,242.118  "/>
   <polygon id="svg_18" fill="#7C7A75" points="81.165,43.915 30.215,94.865 30.215,43.915  "/>
   <polygon id="svg_19" fill="#7C7A75" points="430.837,43.915 481.784,94.865 481.784,43.915  "/>
   <polygon id="svg_20" fill="#7C7A75" points="81.165,440.322 30.215,491.272 30.215,440.322  "/>
  </g>
  <g id="svg_21">
   <polygon id="svg_22" fill="#6B6861" points="53.591,242.118 30.215,242.118 30.215,293.068 53.591,269.693  "/>
   <polygon id="svg_23" fill="#6B6861" points="53.591,43.915 30.215,43.915 30.215,94.865 53.591,71.49  "/>
   <polygon id="svg_24" fill="#6B6861" points="53.591,440.322 30.215,440.322 30.215,491.272 53.591,467.897  "/>
  </g>
  <polygon id="svg_25" fill="#7C7A75" points="430.837,440.322 481.784,491.272 481.784,440.322 "/>
  <path id="svg_26" fill="#FCA468" d="m187.561,385.558l-47.861,0c-4.611,0 -8.348,-3.736 -8.348,-8.348c0,-4.611 3.736,-8.348 8.348,-8.348l47.861,0c4.61,0 8.348,3.736 8.348,8.348c0,4.612 -3.739,8.348 -8.348,8.348z"/>
  <path id="svg_27" fill="#61C98D" d="m370.076,187.355l-47.861,0c-4.611,0 -8.348,-3.738 -8.348,-8.348s3.736,-8.348 8.348,-8.348l47.861,0c4.61,0 8.348,3.738 8.348,8.348s-3.738,8.348 -8.348,8.348z"/>
  <g id="svg_28">
   <polygon id="svg_29" fill="#CCC3A8" points="89.087,211.903 18.389,211.903 18.389,243.231 89.087,243.231 378.348,243.231    409.523,243.231 425.634,243.231 496.336,243.231 496.336,211.903 425.634,211.903  "/>
   <polygon id="svg_30" fill="#CCC3A8" points="89.087,410.106 18.389,410.106 18.389,441.435 89.087,441.435 425.634,441.435    496.336,441.435 496.336,410.106 425.634,410.106  "/>
   <polygon id="svg_31" fill="#CCC3A8" points="425.634,13.7 89.087,13.7 18.389,13.7 18.389,45.028 89.087,45.028 378.348,45.028    409.523,45.028 425.634,45.028 496.336,45.028 496.336,13.7  "/>
  </g>
  <g id="svg_32">
   <polygon id="svg_33" fill="#C9B585" points="23.595,211.903 18.389,211.903 18.389,243.231 23.595,243.231 44.9,243.231 47.195,243.231    48.383,243.231 53.59,243.231 53.59,211.903 48.383,211.903  "/>
   <polygon id="svg_34" fill="#C9B585" points="23.595,410.106 18.389,410.106 18.389,441.435 23.595,441.435 48.383,441.435    53.59,441.435 53.59,410.106 48.383,410.106  "/>
   <polygon id="svg_35" fill="#C9B585" points="48.383,13.7 23.595,13.7 18.389,13.7 18.389,45.028 23.595,45.028 44.9,45.028    47.195,45.028 48.383,45.028 53.59,45.028 53.59,13.7  "/>
  </g>
  <g id="svg_36">
   <path id="svg_37" fill="#36A1CB" d="m512,90.528l0,-76.577c0,-7.706 -6.245,-13.951 -13.95,-13.951l-3.428,0c-7.704,0 -13.95,6.245 -13.95,13.95l0,83.848l0,316.405l0,83.848c0,7.704 6.245,13.95 13.95,13.95l3.428,0c7.704,0 13.95,-6.245 13.95,-13.95l0,-83.848l0,-295.107"/>
   <path id="svg_38" fill="#36A1CB" d="m0,13.95l0,83.848l0,316.405l0,83.848c0,7.704 6.245,13.949 13.95,13.949l3.428,0c7.704,0 13.95,-6.245 13.95,-13.95l0,-83.848l0,-316.404l0,-83.848c0,-7.705 -6.246,-13.95 -13.95,-13.95l-3.428,0c-7.705,0 -13.95,6.245 -13.95,13.95z"/>
  </g>
  <path id="svg_39" fill="#EA6428" d="m230.772,312.165l-11.122,0l-13.336,0l-11.124,0l-68.539,0l-11.122,0l-13.338,0l-11.123,0c-3.489,0 -6.318,2.83 -6.318,6.32l0,28.124l152.341,0l0,-28.124c0.001,-3.489 -2.828,-6.32 -6.319,-6.32z"/>
  <path id="svg_40" fill="#DD4D14" d="m107.011,318.485c0,-3.489 2.828,-6.32 6.318,-6.32l-11.137,0l-11.124,0c-3.489,0 -6.318,2.83 -6.318,6.32l0,28.124l22.261,0l0,-28.124z"/>
  <path id="svg_41" fill="#1E834E" d="m279.002,113.962l11.124,0l13.336,0l11.122,0l68.539,0l11.124,0l13.338,0l11.122,0c3.492,0 6.32,2.83 6.32,6.32l0,28.124l-152.342,0l0,-28.124c0,-3.489 2.828,-6.32 6.317,-6.32z"/>
  <path id="svg_42" fill="#147540" d="m294.945,120.281c0,-3.489 2.828,-6.32 6.318,-6.32l-11.137,0l-11.124,0c-3.489,0 -6.318,2.83 -6.318,6.32l0,28.124l22.261,0l0,-28.124z"/>
  <g id="svg_43">
   <path id="svg_44" fill="#605E5A" d="m178.715,185.618l-17.542,0c-3.689,0 -6.678,2.99 -6.678,6.678l0,19.607l24.22,0l0,-26.285z"/>
   <path id="svg_45" fill="#605E5A" d="m178.715,76.826l-24.22,0l0,46.76c0,2.56 1.463,4.894 3.768,6.01c0.925,0.449 1.92,0.668 2.908,0.668c1.476,0 2.941,-0.489 4.143,-1.439l13.401,-10.592l0,-41.407z"/>
   <path id="svg_46" fill="#605E5A" d="m331.059,383.822l-17.543,0c-3.69,0 -6.678,2.991 -6.678,6.678l0,19.606l24.221,0l0,-26.284z"/>
   <path id="svg_47" fill="#605E5A" d="m331.059,275.029l-24.221,0l0,46.76c0,2.56 1.463,4.894 3.768,6.01c2.304,1.116 5.043,0.816 7.052,-0.771l13.399,-10.593l0.002,0.002l0,-41.408l0,0z"/>
  </g>
  <g id="svg_48"/>
  <g id="svg_49"/>
  <g id="svg_50"/>
  <g id="svg_51"/>
  <g id="svg_52"/>
  <g id="svg_53"/>
  <g id="svg_54"/>
  <g id="svg_55"/>
  <g id="svg_56"/>
  <g id="svg_57"/>
  <g id="svg_58"/>
  <g id="svg_59"/>
  <g id="svg_60"/>
  <g id="svg_61"/>
  <g id="svg_62"/>
  <g stroke="null">
   <polygon stroke="null" fill="#cccccc" points="632.7289428710938,108.7779312133789 478.9358215332031,108.7779312133789 494.48809814453125,480 632.7289428710938,480 "/>
   <rect stroke="null" fill="#e5e5e5" height="371.22466" width="138.23711" y="108.77534" x="356.24799"/>
   <polygon stroke="null" fill="#D61322" points="690.7520141601562,290.93365478515625 632.7289428710938,290.93365478515625 617.1759643554688,350.65948486328125 632.7289428710938,410.38531494140625 690.7520141601562,410.38531494140625 "/>
   <rect stroke="null" fill="#EC2533" height="119.45512" width="58.02235" y="290.93622" x="574.70358"/>
   <path stroke="null" fill="#7f3f00" d="m580.31977,82.43751l-48.33484,0c0,-23.96768 -16.78756,-43.39657 -37.49686,-43.39657l-15.55225,69.73699l15.55225,26.33955l85.8317,0l0,-52.67997z"/>
   <path stroke="null" fill="#bf5f00" d="m494.48807,39.04093c-20.7093,0 -37.49686,19.4289 -37.49686,43.39657l-48.33484,0l0,52.68083l85.8317,0l0,-96.0774l0,0z"/>
   <circle stroke="null" fill="#9D9D9D" r="9.27593" cy="81.5797" cx="494.48882"/>
   <polygon stroke="null" fill="#FFC222" points="657.3934326171875,310.0378723144531 632.7289428710938,338.5838928222656 624.952392578125,361.8109130859375 632.7289428710938,376.763916015625 673.8885498046875,329.1282653808594 "/>
   <polygon stroke="null" fill="#FEDF77" points="621.2160034179688,351.90740966796875 608.0636596679688,336.68658447265625 591.5685424804688,355.7752990722656 621.2160034179688,390.0882568359375 632.7289428710938,376.763916015625 632.7289428710938,338.5838928222656 "/>
   <polygon stroke="null" fill="#F17A00" points="592.3536376953125,176.316162109375 494.48809814453125,176.316162109375 478.9358215332031,189.81446838378906 494.48809814453125,203.3136749267578 592.3536376953125,203.3136749267578 "/>
   <rect stroke="null" fill="#FF9500" height="26.99755" width="97.86555" y="176.31442" x="396.62327"/>
   <g stroke="null">
    <polygon stroke="null" fill="#F17A00" points="592.3536376953125,222.73828125 494.48809814453125,222.73828125 478.9358215332031,236.2366180419922 494.48809814453125,249.73583984375 592.3536376953125,249.73583984375 "/>
    <polygon stroke="null" fill="#F17A00" points="523.5,396.8860778808594 494.48809814453125,396.8860778808594 478.9358215332031,410.38531494140625 494.48809814453125,423.8836364746094 523.5,423.8836364746094 "/>
   </g>
   <g stroke="null">
    <rect stroke="null" fill="#FF9500" height="26.99755" width="97.86555" y="222.74086" x="396.62327"/>
    <rect stroke="null" fill="#FF9500" height="26.99755" width="97.86555" y="396.88352" x="396.62327"/>
   </g>
   <g stroke="null"/>
   <g stroke="null"/>
   <g stroke="null"/>
   <g stroke="null"/>
   <g stroke="null"/>
   <g stroke="null"/>
   <g stroke="null"/>
   <g stroke="null"/>
   <g stroke="null"/>
   <g stroke="null"/>
   <g stroke="null"/>
   <g stroke="null"/>
   <g stroke="null"/>
   <g stroke="null"/>
   <g stroke="null"/>
  </g>
 </g>
</svg>