<svg width="634" height="561" xmlns="http://www.w3.org/2000/svg" xml:space="preserve" version="1.1">

 <g>
  <title>Layer 1</title>
  <g id="svg_21"/>
  <g id="svg_22"/>
  <g id="svg_23"/>
  <g id="svg_24"/>
  <g id="svg_25"/>
  <g id="svg_26"/>
  <g id="svg_27"/>
  <g id="svg_28"/>
  <g id="svg_29"/>
  <g id="svg_30"/>
  <g id="svg_31"/>
  <g id="svg_32"/>
  <g id="svg_33"/>
  <g id="svg_34"/>
  <g id="svg_35"/>
  <g stroke="null" id="svg_75">
   <path stroke="null" id="svg_1" fill="#007fff" d="m430.54981,74.30057l-390.80692,0c-5.9946,0 -10.85554,4.86093 -10.85554,10.85554l0,227.97007l32.56661,0c11.99047,0 21.71107,9.71933 21.71107,21.71107c0,11.99047 -9.72187,21.71107 -21.71107,21.71107l-32.56661,0l0,32.56661c0,5.9946 4.86093,10.85554 10.85554,10.85554l401.66246,0l0,-314.81436c0,-5.9946 -4.86093,-10.85554 -10.85554,-10.85554z"/>
   <path stroke="null" id="svg_2" fill="#a3b0ce" d="m571.67432,247.99296l-130.26897,0l0,151.98005l173.69112,0l0,-108.5579c0,-23.98095 -19.4412,-43.42214 -43.42214,-43.42214z"/>
   <path stroke="null" id="svg_3" fill="#AFB9D2" d="m441.40535,280.55957l117.60439,0c11.99174,0 21.71107,9.71933 21.71107,21.71107l0,97.7011l-139.31547,0l0,-119.41217z"/>
   <path stroke="null" id="svg_4" fill="#888c96" d="m528.25091,117.72398l-86.84556,0l0,43.42341l119.41344,0l0,-10.85554c0,-17.98761 -14.58153,-32.56788 -32.56788,-32.56788z"/>
   <polygon stroke="null" id="svg_5" fill="#69bce5" points="571.6743194800924,247.992954943722 549.96196876776,161.14739967278365 441.4053568130962,161.14739967278365 441.4053568130962,247.992954943722 "/>
   <circle stroke="null" id="svg_6" fill="#FFFFFF" r="86.84555" cy="215.42508" cx="235.14635"/>
   <path stroke="null" id="svg_7" fill="#F1F4FB" d="m571.67432,291.4151l43.42341,0l0,43.42341l-21.71107,0c-11.99174,0 -21.71107,-9.71933 -21.71107,-21.71107l0,-21.71234l-0.00127,0z"/>
   <path stroke="null" id="svg_8" fill="#959CB5" d="m517.39537,323.98298c-32.71768,0 -61.18252,18.10949 -75.99002,44.8351l0,31.15492l162.0853,0c-5.3535,-42.82929 -41.81622,-75.99002 -86.09528,-75.99002z"/>
   <path stroke="null" id="svg_9" fill="#AFB9D2" d="m580.71954,351.47538l0,48.49763l22.77111,0c-2.33081,-18.64776 -10.56609,-35.45473 -22.77111,-48.49763z"/>
   <circle stroke="null" id="svg_10" fill="#434554" r="54.27898" cy="410.82854" cx="517.39537"/>
   <path stroke="null" id="svg_11" fill="#9BD6FF" d="m484.82876,193.71401l73.27582,0l-8.14133,-32.56661l-108.55663,0l0,86.84556l32.56661,0l0,-43.42341c-0.00127,-5.9946 4.85966,-10.85554 10.85554,-10.85554z"/>
   <path stroke="null" id="svg_12" fill="#56aaff" d="m159.15633,323.98298c-27.41242,0 -51.81992,12.73059 -67.73443,32.56661l-29.96666,0l-32.56788,0l0,32.56661c0,5.9946 4.86093,10.85554 10.85554,10.85554l401.66246,0l0,-43.42341l-214.51459,0c-15.91451,-19.83474 -40.32201,-32.56534 -67.73443,-32.56534z"/>
   <circle stroke="null" id="svg_13" fill="#3e3f47" r="54.27894" cy="410.82854" cx="159.15633"/>
   <path stroke="null" id="svg_15" d="m159.15633,389.79538c-11.5982,0 -21.03316,9.43496 -21.03316,21.03316c0,11.5982 9.43496,21.03316 21.03316,21.03316c11.5982,0 21.03316,-9.43496 21.03316,-21.03316c0,-11.5982 -9.43496,-21.03316 -21.03316,-21.03316z"/>
   <path stroke="null" id="svg_16" d="m517.39537,389.79538c-11.5982,0 -21.03316,9.43496 -21.03316,21.03316c0,11.5982 9.43496,21.03316 21.03316,21.03316s21.03316,-9.43496 21.03316,-21.03316c0,-11.5982 -9.43496,-21.03316 -21.03316,-21.03316z"/>
   <g stroke="null">
    <g stroke="null">
     <polygon stroke="null" fill="#cc8f4f" points="269.0685248500936,164.3351269968225 208.35114977836702,164.3351269968225 192.3729158828005,189.90033573715846 192.3729158828005,257.0089698596821 285.04677599937486,257.0089698596821 285.04677599937486,189.90033573715846 "/>
     <path stroke="null" fill="#5B4631" d="m248.2968,207.4764l-19.1739,0c-1.75761,0 -3.19565,-1.43804 -3.19565,-3.19565l0,0c0,-1.75761 1.43804,-3.19565 3.19565,-3.19565l19.1739,0c1.75761,0 3.19565,1.43804 3.19565,3.19565l0,0c0,1.75761 -1.43804,3.19565 -3.19565,3.19565z"/>
     <g stroke="null">
      <path stroke="null" fill="#E8D5B2" d="m251.49245,245.8242l-25.5652,0c-0.882,0 -1.59783,0.71423 -1.59783,1.59783s0.71583,1.59783 1.59783,1.59783l25.5652,0c0.882,0 1.59783,-0.71423 1.59783,-1.59783s-0.71583,-1.59783 -1.59783,-1.59783z"/>
      <path stroke="null" fill="#E8D5B2" d="m225.92725,233.0416c0.40904,0 0.81809,-0.15659 1.12966,-0.46816l2.06599,-2.06599l0,10.52328c0,0.8836 0.71583,1.59783 1.59783,1.59783s1.59783,-0.71423 1.59783,-1.59783l0,-10.52328l2.06599,2.06599c0.31158,0.31158 0.72062,0.46816 1.12966,0.46816s0.81809,-0.15659 1.12966,-0.46816c0.62475,-0.62475 0.62475,-1.63458 0,-2.25932l-4.79188,-4.79188c-0.147,-0.1486 -0.32436,-0.26524 -0.52089,-0.34673c-0.38987,-0.16138 -0.83087,-0.16138 -1.22074,0c-0.19653,0.08149 -0.37229,0.19813 -0.52089,0.34673l-4.79188,4.79188c-0.62475,0.62475 -0.62475,1.63458 0,2.25932c0.31158,0.31158 0.72062,0.46816 1.12966,0.46816z"/>
      <path stroke="null" fill="#E8D5B2" d="m251.49219,234.64199c-0.40904,0 -0.81809,0.15659 -1.12966,0.46816l-2.06599,2.06599l0,-10.52328c0,-0.8836 -0.71583,-1.59783 -1.59783,-1.59783s-1.59783,0.71423 -1.59783,1.59783l0,10.52328l-2.06599,-2.06599c-0.31158,-0.31158 -0.72062,-0.46816 -1.12966,-0.46816s-0.81809,0.15659 -1.12966,0.46816c-0.62475,0.62475 -0.62475,1.63458 0,2.25932l4.79188,4.79188c0.147,0.1486 0.32436,0.26524 0.52089,0.34673c0.38987,0.16138 0.83087,0.16138 1.22074,0c0.19653,-0.08149 0.37229,-0.19813 0.52089,-0.34673l4.79188,-4.79188c0.62475,-0.62475 0.62475,-1.63458 0,-2.25932c-0.31158,-0.31158 -0.72062,-0.46816 -1.12966,-0.46816z"/>
     </g>
     <polygon stroke="null" fill="#ffaa56" points="208.35114977836702,164.3351269968225 192.3729158828005,189.90033573715846 285.04677599937486,189.90033573715846 269.0685248500936,164.3351269968225 "/>
     <rect stroke="null" y="164.33512" fill="#F4D5BD" height="25.5652" width="3.19565" x="237.11202"/>
    </g>
    <g stroke="null"/>
    <g stroke="null"/>
    <g stroke="null"/>
    <g stroke="null"/>
    <g stroke="null"/>
    <g stroke="null"/>
    <g stroke="null"/>
    <g stroke="null"/>
    <g stroke="null"/>
    <g stroke="null"/>
    <g stroke="null"/>
    <g stroke="null"/>
    <g stroke="null"/>
    <g stroke="null"/>
    <g stroke="null"/>
   </g>
   <path stroke="null" id="svg_19" d="m235.14635,118.4019c-53.49821,0 -97.02318,43.52497 -97.02318,97.02318s43.52497,97.02318 97.02318,97.02318s97.02318,-43.52497 97.02318,-97.02318s-43.52497,-97.02318 -97.02318,-97.02318zm0,173.69239c-42.27451,0 -76.66794,-34.39343 -76.66794,-76.66794s34.39343,-76.66794 76.66794,-76.66794s76.66794,34.39343 76.66794,76.66794s-34.39343,76.66794 -76.66794,76.66794z"/>
  </g>
  <g stroke="null">
   <path stroke="null" fill="#E8EFEE" d="m224.58851,517.30334c-2.84328,0 -2.84328,-3.88572 -2.84328,-6.47621l0,-222.78147c0,-2.59048 0,-3.88572 2.84328,-3.88572l175.06482,0c2.4371,0 4.87419,1.29524 4.87419,3.88572l0,222.78147c0,2.59048 -2.4371,6.47621 -4.87419,6.47621l-175.06482,0z"/>
   <path stroke="null" fill="#9AA5A4" d="m396.40386,292.79489l0,215.87351l-166.53498,0l0,-215.87351l166.53498,0m3.24946,-17.26988l-175.06482,0c-7.31129,0 -10.96694,5.18096 -10.96694,12.52066l0,222.78147c0,7.3397 3.65565,15.11115 10.96694,15.11115l175.06482,0c6.90511,0 12.99785,-7.77145 12.99785,-15.11115l0,-222.78147c0,-7.3397 -6.09274,-12.52066 -12.99785,-12.52066l0,0z"/>
   <path stroke="null" fill="#FFFFFF" d="m399.65332,284.15995l-175.06482,0c-2.84328,0 -2.84328,1.29524 -2.84328,3.88572l0,222.78147c0,1.72699 0,3.02223 0.81237,3.88572l180.75138,-229.68942c-1.21855,-0.86349 -2.4371,-0.86349 -3.65565,-0.86349z"/>
   <path stroke="null" fill="#B3BCBB" d="m408.58935,278.54724c-2.4371,-2.15874 -5.68656,-3.02223 -8.93602,-3.02223l-175.06482,0c-7.31129,0 -10.96694,5.18096 -10.96694,12.52066l0,222.78147c0,4.31747 0.81237,7.3397 2.84328,10.79368l13.40403,-14.24765l0,-214.57827l166.53498,0l0,1.72699l12.18549,-15.97464z"/>
   <g stroke="null">
    <path stroke="null" fill="#E8EFEE" d="m266.01916,340.28706l95.85916,0c3.24946,0 6.09274,-3.02223 6.09274,-6.47621s-2.84328,-6.47621 -6.09274,-6.47621l-95.85916,0c-3.24946,0 -6.09274,3.02223 -6.09274,6.47621s2.84328,6.47621 6.09274,6.47621z"/>
    <path stroke="null" fill="#E8EFEE" d="m266.01916,374.82682l55.24087,0c3.24946,0 6.09274,-3.02223 6.09274,-6.47621s-2.4371,-6.47621 -5.68656,-6.47621l-55.64705,0c-3.24946,0 -6.09274,3.02223 -6.09274,6.47621s2.84328,6.47621 6.09274,6.47621z"/>
    <path stroke="null" fill="#E8EFEE" d="m361.87832,396.41417l-95.85916,0c-3.24946,0 -6.09274,5.18096 -6.09274,8.63494s2.84328,8.63494 6.09274,8.63494l95.85916,0c3.24946,0 6.09274,-5.18096 6.09274,-8.63494s-2.4371,-8.63494 -6.09274,-8.63494z"/>
    <path stroke="null" fill="#E8EFEE" d="m321.66621,435.27141l-55.64705,0c-3.24946,0 -6.09274,3.02223 -6.09274,6.47621s2.84328,6.47621 6.09274,6.47621l55.24087,0c3.24946,0 6.09274,-3.02223 6.09274,-6.47621c0.40618,-3.45398 -2.4371,-6.47621 -5.68656,-6.47621z"/>
   </g>
   <g stroke="null">
    <path stroke="null" fill="#B1BAB9" d="m263.98825,335.96959l95.85916,0c3.24946,0 6.09274,-3.02223 6.09274,-6.47621s-2.4371,-6.47621 -6.09274,-6.47621l-95.85916,0c-3.24946,0 -6.09274,3.02223 -6.09274,6.47621s2.84328,6.47621 6.09274,6.47621z"/>
    <path stroke="null" fill="#B1BAB9" d="m359.8474,396.41417l-95.85916,0c-3.24946,0 -6.09274,3.02223 -6.09274,6.47621s2.84328,6.47621 6.09274,6.47621l95.85916,0c3.24946,0 6.09274,-3.02223 6.09274,-6.47621s-2.4371,-6.47621 -6.09274,-6.47621z"/>
   </g>
   <g stroke="null">
    <path stroke="null" fill="#9AA5A4" d="m319.6353,430.95394l-55.64705,0c-3.24946,0 -6.09274,3.02223 -6.09274,6.47621s2.84328,6.47621 6.09274,6.47621l55.24087,0c3.24946,0 6.09274,-3.02223 6.09274,-6.47621c0.40618,-3.45398 -2.4371,-6.47621 -5.68656,-6.47621z"/>
    <path stroke="null" fill="#9AA5A4" d="m319.6353,357.55694l-55.64705,0c-3.24946,0 -6.09274,3.02223 -6.09274,6.47621s2.84328,6.47621 6.09274,6.47621l55.24087,0c3.24946,0 6.09274,-3.02223 6.09274,-6.47621c0.40618,-3.45398 -2.4371,-6.47621 -5.68656,-6.47621z"/>
    <circle stroke="null" fill="#9AA5A4" opacity="0.3" r="54.4509" cy="485.78581" cx="380.15655"/>
   </g>
   <circle stroke="null" fill="#5AC117" r="54.4509" cy="485.78581" cx="373.25144"/>
   <path stroke="null" fill="#44A307" d="m373.25144,427.49996c30.46372,0 54.83469,25.90482 54.83469,58.28585s-24.37097,58.28585 -54.83469,58.28585"/>
   <path stroke="null" fill="#4DB20D" d="m334.66407,444.76984c21.52769,-22.88259 56.05324,-22.88259 77.58093,0s21.52769,59.58109 0,82.46368"/>
   <path stroke="null" fill="#44A307" d="m376.09472,513.84937c-1.62473,0 -2.84328,-0.43175 -4.06183,-1.72699l-25.18334,-26.76832c-2.4371,-2.59048 -2.4371,-6.47621 0,-9.06669s6.09274,-2.59048 8.52984,0l21.12151,22.45085l48.74194,-51.80964c2.4371,-2.59048 6.09274,-2.59048 8.52984,0s2.4371,6.47621 0,9.06669l-52.80377,56.12711c-2.03091,1.29524 -3.65565,1.72699 -4.87419,1.72699z"/>
   <path stroke="null" fill="#FFFFFF" d="m373.65762,506.94141c-1.62473,0 -2.84328,-0.43175 -4.06183,-1.72699l-25.58952,-26.76832c-2.4371,-2.59048 -2.4371,-6.47621 0,-9.06669s6.09274,-2.59048 8.52984,0l21.12151,22.45085l48.74194,-51.80964c2.4371,-2.59048 6.09274,-2.59048 8.52984,0s2.4371,6.47621 0,9.06669l-52.80377,56.12711c-1.62473,1.29524 -3.24946,1.72699 -4.46801,1.72699z"/>
   <g stroke="null"/>
   <g stroke="null"/>
   <g stroke="null"/>
   <g stroke="null"/>
   <g stroke="null"/>
   <g stroke="null"/>
   <g stroke="null"/>
   <g stroke="null"/>
   <g stroke="null"/>
   <g stroke="null"/>
   <g stroke="null"/>
   <g stroke="null"/>
   <g stroke="null"/>
   <g stroke="null"/>
   <g stroke="null"/>
  </g>
 </g>
</svg>