<svg width="400" height="400" xmlns="http://www.w3.org/2000/svg" version="1.1" xml:space="preserve">
 <g>
  <title>Layer 1</title>
  <g id="XMLID_807_">
   <g id="XMLID_808_">
    <polygon id="XMLID_75_" points="98,320 98,0 298,0 358,60 358,320 " fill="#8CD79F"/>
    <polygon id="XMLID_809_" points="298,0 358,60 298,60 " fill="#818085"/>
   </g>
   <g id="XMLID_810_">
    <polygon id="XMLID_72_" points="78,360 78,40 278,40 338,100 338,360 " fill="#EEEEEF"/>
    <polygon id="XMLID_811_" points="278,40 338,100 278,100 " fill="#DEDDE0"/>
   </g>
   <polygon id="XMLID_68_" points="58,400 58,80 258,80 318,140 318,400 " fill="#5B9BA2"/>
   <polygon id="XMLID_812_" points="318,253.75 58,400 318,400 " fill="#007f00"/>
   <rect id="XMLID_813_" x="118" y="200" width="140" height="20" fill="#DEDDE0"/>
   <rect id="XMLID_814_" x="118" y="240" width="140" height="20" fill="#DEDDE0"/>
   <rect id="XMLID_815_" x="118" y="160" width="70" height="20" fill="#FFFFFF"/>
   <rect id="XMLID_816_" x="118" y="200" width="70" height="20" fill="#FFFFFF"/>
   <rect id="XMLID_817_" x="118" y="240" width="70" height="20" fill="#FFFFFF"/>
   <rect id="XMLID_818_" x="118" y="280" width="140" height="20" fill="#DEDDE0"/>
   <rect id="XMLID_819_" x="118" y="280" width="70" height="20" fill="#FFFFFF"/>
   <rect id="XMLID_820_" x="118" y="320" width="140" height="20" fill="#DEDDE0"/>
   <rect id="XMLID_821_" x="118" y="320" width="70" height="20" fill="#FFFFFF"/>
   <polygon id="XMLID_822_" points="258,80 318,140 258,140 " fill="#1E2E3B"/>
  </g>
  <g id="svg_1"/>
  <g id="svg_2"/>
  <g id="svg_3"/>
  <g id="svg_4"/>
  <g id="svg_5"/>
  <g id="svg_6"/>
  <g id="svg_7"/>
  <g id="svg_8"/>
  <g id="svg_9"/>
  <g id="svg_10"/>
  <g id="svg_11"/>
  <g id="svg_12"/>
  <g id="svg_13"/>
  <g id="svg_14"/>
  <g id="svg_15"/>
  <g id="svg_27" stroke="null">
   <path d="m416.96201,181.91827l15.3677,94.05904c2.29338,13.98857 15.19324,24.94605 29.36818,24.94605l64.17006,0l0,-119.0051l-108.90595,0l0.00001,0.00001z" fill="#FF9478" id="svg_16" stroke="null"/>
   <path d="m596.38959,229.03657c7.32017,0 14.37839,1.13944 21.01107,3.24438l8.25513,-50.36269l-99.78835,0l0,119.00458l0.97067,0c-0.02485,-0.76153 -0.04193,-1.52564 -0.04193,-2.29338c0,-38.37344 31.21945,-69.59289 69.59341,-69.59289z" fill="#FF7956" id="svg_17" stroke="null"/>
   <path d="m434.83586,375.22985c0,15.28177 12.4329,27.71415 27.71467,27.71415l0,-55.42883c-15.28228,0 -27.71467,12.4329 -27.71467,27.71467l0,0.00001z" fill="#2488FF" id="svg_18" stroke="null"/>
   <path d="m571.27373,363.53155c-1.66335,3.55655 -2.5983,7.51948 -2.5983,11.6983c0,15.28177 12.43239,27.71415 27.71415,27.71415l0,-34.72112c-8.85151,0 -17.32096,-1.66438 -25.11585,-4.69133z" fill="#2488FF" id="svg_19" stroke="null"/>
   <path d="m462.55001,347.51517l0,55.42883c15.28177,0 27.71415,-12.43239 27.71415,-27.71415s-12.43239,-27.71467 -27.71415,-27.71467l0,-0.00001z" fill="#005ECE" id="svg_20" stroke="null"/>
   <path d="m596.38959,402.944c15.28177,0 27.71467,-12.43239 27.71467,-27.71415c0,-4.17881 -0.93495,-8.14123 -2.5983,-11.6983c-7.7949,3.02695 -16.26435,4.69133 -25.11637,4.69133l0,34.72112z" fill="#005ECE" id="svg_21" stroke="null"/>
   <path d="m445.18971,316.45362l0,20.7077l93.27681,0c-4.18089,-6.2646 -7.37298,-13.24154 -9.35263,-20.7077l-83.92418,0z" fill="#2488FF" id="svg_22" stroke="null"/>
   <path d="m648.33745,171.56441l16.51129,0l0,-20.7077l-34.10144,0l-13.34663,81.42424c7.00645,2.22349 13.53611,5.52689 19.39173,9.71657l11.54506,-70.43311l-0.00001,0z" fill="#2488FF" id="svg_23" stroke="null"/>
   <path d="m596.38959,347.51517l0,-16.98756l-10.35385,0l0,-21.54429l-21.54429,0l0,-20.7077l21.54429,0l0,-21.54378l10.35385,0l0,-37.69527c-38.37396,0 -69.59341,31.21945 -69.59341,69.59341c0,0.76774 0.01708,1.53133 0.04193,2.29338c0.17394,5.34983 0.95463,10.54902 2.27578,15.53078c1.97966,7.46616 5.17175,14.4431 9.35263,20.7077c7.90775,11.84843 19.34928,21.14412 32.80721,26.37022c7.7949,3.02695 16.26435,4.69133 25.11585,4.69133l0,-20.70822l0.00001,0z" fill="#FFDA44" id="svg_24" stroke="null"/>
   <path d="m665.983,298.62998c0,-23.32101 -11.5316,-43.99766 -29.19061,-56.63246c-5.85562,-4.18969 -12.38528,-7.49256 -19.39173,-9.71657c-6.63268,-2.10494 -13.6909,-3.24438 -21.01107,-3.24438l0,37.69527l10.35385,0l0,21.54429l21.54429,0l0,20.7077l-21.54429,0l0,21.54429l-10.35385,0l0,16.98756l0,20.7077c8.85203,0 17.32096,-1.66438 25.11637,-4.69133c25.99749,-10.09604 44.47704,-35.38015 44.47704,-64.90208l0,0.00001z" fill="#FFCD00" id="svg_25" stroke="null"/>
   <polygon points="586.0357360839844,288.2761535644531 564.491455078125,288.2761535644531 564.491455078125,308.9838562011719 586.0357360839844,308.9838562011719 586.0357360839844,330.52813720703125 596.3895874023438,330.52813720703125 606.7434387207031,330.52813720703125 606.7434387207031,308.9838562011719 628.2877502441406,308.9838562011719 628.2877502441406,288.2761535644531 606.7434387207031,288.2761535644531 606.7434387207031,266.7318420410156 596.3895874023438,266.7318420410156 586.0357360839844,266.7318420410156 " fill="#2488FF" id="svg_26" stroke="null"/>
  </g>
  <g stroke="null" id="svg_28">
   <g stroke="null" id="svg_29">
    <path stroke="null" fill="#ff9478" d="m117.48951,183.88416l15.05914,92.17046c2.24733,13.7077 14.88818,24.44517 28.77851,24.44517l62.88162,0l0,-116.61563l-106.71926,0l-0.00001,0z" id="svg_30"/>
    <path stroke="null" fill="#FF7956" d="m293.31443,230.05639c7.17319,0 14.08969,1.11656 20.5892,3.17924l8.08937,-49.35147l-97.78473,0l0,116.61513l0.95118,0c-0.02435,-0.74624 -0.04109,-1.49501 -0.04109,-2.24733c0,-37.60296 30.59261,-68.19556 68.19607,-68.19556l0,-0.00001z" id="svg_31"/>
    <path stroke="null" fill="#ff9478" d="m135.00448,373.3143c0,14.97493 12.18327,27.15769 27.1582,27.15769l0,-54.31589c-14.97544,0 -27.1582,12.18327 -27.1582,27.1582z" id="svg_32"/>
    <path stroke="null" fill="#ff9478" d="m268.70287,361.85089c-1.62995,3.48514 -2.54613,7.3685 -2.54613,11.46341c0,14.97493 12.18276,27.15769 27.15769,27.15769l0,-34.02397c-8.67378,0 -16.97318,-1.63096 -24.61156,-4.59713z" id="svg_33"/>
    <path stroke="null" fill="#ff7f00" d="m162.16217,346.1561l0,54.31589c14.97493,0 27.15769,-12.18276 27.15769,-27.15769s-12.18276,-27.1582 -27.15769,-27.1582z" id="svg_34"/>
    <path stroke="null" fill="#ff7f00" d="m293.31443,400.47199c14.97493,0 27.1582,-12.18276 27.1582,-27.15769c0,-4.09491 -0.91618,-7.97777 -2.54613,-11.46341c-7.63839,2.96617 -15.93778,4.59713 -24.61207,4.59713l0,34.02397z" id="svg_35"/>
    <path stroke="null" fill="#bf5f00" d="m145.15044,315.71822l0,20.29192l91.40394,0c-4.09694,-6.13881 -7.22494,-12.97567 -9.16485,-20.29192l-82.23909,0z" id="svg_36"/>
    <path stroke="null" fill="#bf5f00" d="m344.21925,173.7382l16.17976,0l0,-20.29192l-33.41673,0l-13.07865,79.78935c6.86577,2.17884 13.26432,5.41591 19.00237,9.52148l11.31325,-69.01891z" id="svg_37"/>
    <path stroke="null" fill="#FFDA44" d="m293.31443,346.1561l0,-16.64648l-10.14596,0l0,-21.11171l-21.11171,0l0,-20.29192l21.11171,0l0,-21.11121l10.14596,0l0,-36.9384c-37.60346,0 -68.19607,30.59261 -68.19607,68.19607c0,0.75232 0.01674,1.50059 0.04109,2.24733c0.17045,5.24242 0.93546,10.33721 2.23008,15.21894c1.93991,7.31625 5.06791,14.15311 9.16485,20.29192c7.74898,11.61053 18.96077,20.71957 32.14849,25.84075c7.63839,2.96617 15.93778,4.59713 24.61156,4.59713l0,-20.29243l0,0.00001z" id="svg_38"/>
    <path stroke="null" fill="#FFCD00" d="m361.5105,298.25246c0,-22.85276 -11.30006,-43.11424 -28.6045,-55.49536c-5.73805,-4.10556 -12.1366,-7.34212 -19.00237,-9.52148c-6.4995,-2.06267 -13.416,-3.17924 -20.5892,-3.17924l0,36.9384l10.14596,0l0,21.11171l21.11171,0l0,20.29192l-21.11171,0l0,21.11171l-10.14596,0l0,16.64648l0,20.29192c8.67429,0 16.97318,-1.63096 24.61207,-4.59713c25.47549,-9.89333 43.584,-34.66976 43.584,-63.59893z" id="svg_39"/>
    <polygon stroke="null" fill="#2488FF" points="283.1684875488281,288.10650634765625 262.0567626953125,288.10650634765625 262.0567626953125,308.3984069824219 283.1684875488281,308.3984069824219 283.1684875488281,329.5101623535156 293.3144226074219,329.5101623535156 303.46038818359375,329.5101623535156 303.46038818359375,308.3984069824219 324.5721130371094,308.3984069824219 324.5721130371094,288.10650634765625 303.46038818359375,288.10650634765625 303.46038818359375,266.9947814941406 293.3144226074219,266.9947814941406 283.1684875488281,266.9947814941406 " id="svg_40"/>
   </g>
   <g stroke="null" id="svg_41"/>
   <g stroke="null" id="svg_42"/>
   <g stroke="null" id="svg_43"/>
   <g stroke="null" id="svg_44"/>
   <g stroke="null" id="svg_45"/>
   <g stroke="null" id="svg_46"/>
   <g stroke="null" id="svg_47"/>
   <g stroke="null" id="svg_48"/>
   <g stroke="null" id="svg_49"/>
   <g stroke="null" id="svg_50"/>
   <g stroke="null" id="svg_51"/>
   <g stroke="null" id="svg_52"/>
   <g stroke="null" id="svg_53"/>
   <g stroke="null" id="svg_54"/>
   <g stroke="null" id="svg_55"/>
  </g>
 </g>

</svg>